<svg xmlns="http://www.w3.org/2000/svg" viewBox="0 0 64 64">
  <defs>
    <linearGradient id="flame" x1="50%" y1="100%" x2="50%" y2="0%">
      <stop offset="0%" stop-color="#fde047"/>
      <stop offset="35%" stop-color="#f97316"/>
      <stop offset="75%" stop-color="#dc2626"/>
      <stop offset="100%" stop-color="#7f1d1d"/>
    </linearGradient>
  </defs>
  <path fill="url(#flame)" d="M32 60c-13 0-22-9-22-21 0-7 4-12 7-15 0 4 2 6 4 6 2 0 4-2 4-5 0-5-2-9-4-13 7 0 14 4 17 11 1 2 1 5 0 7-1 2 0 3 1 3 2 0 3-2 3-5 4 4 7 9 7 15 0 9-6 17-17 17z"/>
  <path fill="#fef3c7" opacity="0.7" d="M32 50c-5 0-9-4-9-9 0-3 2-5 4-7 0 2 1 3 3 3 1 0 2-1 2-2 2 1 4 4 4 7 0 5-2 8-4 8z"/>
</svg>
